<?xml version="1.0" standalone="no"?>
<!DOCTYPE svg PUBLIC "-//W3C//DTD SVG 20010904//EN"
 "http://www.w3.org/TR/2001/REC-SVG-20010904/DTD/svg10.dtd">
<svg version="1.0" xmlns="http://www.w3.org/2000/svg"
 width="1628.000000pt" height="492.000000pt" viewBox="0 0 1628.000000 492.000000"
 preserveAspectRatio="xMidYMid meet">

<g transform="translate(0.000000,492.000000) scale(0.100000,-0.100000)"
fill="#000000" stroke="none">
<path d="M2272 3739 c-185 -22 -326 -85 -437 -195 -126 -125 -172 -248 -162
-429 10 -174 72 -294 279 -539 169 -201 260 -323 301 -405 42 -84 42 -85 42
-195 0 -104 -2 -114 -30 -165 -80 -144 -249 -209 -388 -147 -62 27 -83 61 -92
147 -7 62 10 131 47 185 35 53 130 96 223 102 85 5 84 3 59 90 -21 72 -108
166 -190 206 -53 26 -63 27 -163 24 -96 -3 -113 -6 -172 -35 -138 -68 -237
-208 -264 -373 -39 -240 59 -448 279 -594 120 -80 227 -108 411 -109 133 0
196 9 320 45 267 78 479 288 528 524 l14 69 7 -70 c19 -209 53 -295 157 -397
98 -97 172 -131 295 -136 159 -7 255 27 371 133 l69 63 24 -35 c40 -59 117
-120 173 -139 29 -9 56 -20 60 -24 5 -4 -12 -24 -37 -45 -70 -57 -109 -144
-114 -254 -7 -135 29 -215 142 -319 83 -75 152 -105 259 -110 196 -10 397 82
491 224 66 100 100 210 170 544 19 91 49 230 66 310 36 169 97 455 110 520 5
25 18 86 29 135 11 50 33 155 50 234 17 79 33 147 37 150 3 3 53 7 110 7 58 1
107 3 109 5 3 4 35 180 35 194 0 3 -9 5 -20 5 -13 0 -20 7 -20 20 0 18 -7 20
-80 20 -95 0 -93 -6 -55 143 33 135 73 192 143 210 45 11 54 0 51 -67 -3 -56
-1 -61 19 -64 15 -2 22 -9 20 -20 -3 -15 11 -17 109 -20 l111 -3 7 55 c21 165
-12 271 -113 372 -133 131 -252 163 -462 122 -115 -22 -247 -107 -314 -202
-83 -116 -103 -186 -221 -756 -14 -69 -30 -143 -35 -165 -5 -22 -18 -83 -29
-135 -102 -485 -119 -544 -180 -633 -31 -46 -81 -77 -124 -77 -49 0 -45 36 53
490 12 52 34 160 51 240 16 80 33 163 39 185 14 58 60 273 60 280 0 3 -11 5
-25 5 -18 0 -25 5 -25 20 0 19 -7 20 -256 20 -247 0 -256 -1 -261 -20 -7 -25
-5 -25 -56 2 -35 18 -63 22 -170 26 -119 4 -133 3 -202 -22 -102 -36 -178 -83
-261 -160 -104 -96 -201 -245 -263 -404 -41 -103 -90 -317 -92 -402 -1 -25 -6
5 -11 65 -10 121 -32 203 -86 310 -53 107 -112 184 -292 385 -191 212 -241
289 -264 406 -33 167 67 307 220 307 30 0 66 -6 79 -13 33 -17 49 -70 42 -140
-6 -69 -25 -108 -84 -171 l-45 -48 31 -40 c124 -156 288 -186 419 -76 109 92
133 309 52 468 -45 87 -176 200 -279 241 -103 40 -277 60 -399 45z m1590
-1099 c-1 -19 -11 -75 -22 -125 -11 -49 -40 -187 -65 -305 -58 -273 -75 -326
-124 -376 -59 -62 -144 -95 -173 -66 -20 20 -26 140 -13 250 47 366 212 670
360 660 39 -3 40 -4 37 -38z m478 -1422 c-1 -23 -45 -140 -64 -168 -26 -39
-78 -62 -98 -42 -14 14 1 77 26 115 26 39 137 116 136 95z"/>
<path d="M9217 3714 c-128 -54 -260 -64 -482 -39 -71 9 -193 23 -270 31 -166
19 -455 21 -575 5 -376 -51 -628 -210 -750 -474 -79 -170 -91 -410 -25 -523
31 -53 103 -118 157 -143 53 -24 134 -41 194 -41 58 0 64 16 36 94 -17 48 -22
83 -22 167 0 262 70 416 223 488 85 40 224 69 221 46 -3 -20 -119 -566 -134
-630 -5 -22 -26 -116 -45 -210 -20 -93 -40 -188 -45 -210 -5 -22 -19 -85 -30
-140 -11 -55 -25 -118 -30 -140 -5 -22 -26 -116 -45 -210 -52 -245 -57 -267
-66 -299 -16 -52 -11 -86 11 -86 13 0 20 -7 20 -20 0 -20 5 -20 258 -18 l257
3 27 125 c15 69 36 170 48 225 11 55 25 118 30 140 5 22 30 137 55 255 25 118
50 233 55 255 5 22 30 137 55 255 25 118 50 233 55 255 5 22 19 85 30 140 11
55 25 118 30 140 5 22 12 55 15 72 4 18 10 35 14 37 4 3 72 -7 151 -20 188
-32 372 -31 462 5 74 29 150 98 183 165 24 50 55 194 55 259 0 24 -4 28 -22
25 -17 -2 -23 2 -23 16 0 27 -12 27 -78 0z"/>
<path d="M14275 3569 c-66 -10 -158 -23 -205 -29 -166 -22 -144 -6 -169 -123
-12 -56 -26 -120 -31 -142 -8 -35 -34 -158 -101 -475 -11 -52 -24 -113 -29
-135 -5 -22 -26 -116 -45 -210 -20 -93 -40 -188 -45 -210 -5 -22 -17 -76 -26
-120 -9 -44 -19 -91 -22 -103 -5 -27 -121 -146 -197 -203 -89 -67 -157 -92
-265 -96 -130 -5 -141 1 -159 95 -17 91 -4 152 32 152 41 0 220 61 287 97 226
123 370 345 370 569 0 121 -32 196 -115 272 -45 42 -72 57 -138 78 -74 24 -92
25 -186 20 -205 -12 -342 -70 -475 -200 -104 -102 -192 -233 -236 -350 -16
-44 -19 -28 -8 49 5 39 8 126 6 195 -3 112 -7 130 -30 176 -15 28 -52 74 -83
102 -62 57 -105 69 -202 58 -68 -8 -105 -27 -136 -68 -52 -70 -58 -145 -18
-233 31 -68 108 -135 155 -135 18 0 16 -13 -15 -155 -61 -269 -200 -553 -315
-640 -42 -32 -115 -57 -134 -45 -13 8 5 106 106 580 19 91 44 206 54 255 11
50 31 144 45 210 30 143 30 135 5 135 -13 0 -20 7 -20 20 0 19 -7 20 -258 20
l-258 0 -12 -47 c-6 -27 -27 -124 -47 -218 -168 -795 -164 -778 -218 -870 -37
-64 -77 -96 -127 -102 -66 -9 -65 0 20 397 11 52 28 129 36 170 9 41 24 116
35 165 23 110 42 196 73 342 13 62 21 115 18 118 -3 3 -14 5 -24 5 -11 0 -18
7 -18 20 0 19 -7 20 -256 20 -247 0 -256 -1 -261 -20 -7 -25 -5 -25 -56 2 -60
31 -269 39 -348 13 -163 -53 -303 -157 -401 -297 -23 -32 -41 -58 -42 -58 -1
0 -2 31 -3 69 -2 83 -30 146 -95 208 -99 96 -229 109 -371 37 -57 -28 -57 -28
-57 -9 0 8 -9 15 -20 15 -13 0 -20 7 -20 20 0 19 -7 20 -254 20 -140 0 -257
-3 -259 -7 -3 -5 -14 -53 -26 -108 -11 -55 -30 -143 -41 -195 -11 -52 -31
-147 -45 -210 -13 -63 -38 -180 -55 -260 -17 -80 -39 -185 -50 -235 -10 -49
-35 -166 -55 -260 -20 -93 -40 -190 -45 -215 -5 -25 -12 -55 -16 -67 -5 -19
-2 -23 15 -23 14 0 21 -6 21 -20 0 -20 5 -20 262 -18 l262 3 12 55 c18 91 61
296 94 450 17 80 38 179 46 220 9 41 24 116 35 165 10 50 26 124 35 165 17 82
44 126 96 158 58 35 68 33 89 -23 26 -70 84 -125 143 -136 72 -13 160 8 210
50 18 15 19 15 11 -4 -85 -210 -117 -363 -118 -550 0 -144 17 -234 60 -320 37
-73 151 -180 231 -218 64 -30 73 -32 187 -32 93 0 131 4 170 19 58 22 155 88
204 139 l34 36 37 -48 c89 -113 186 -157 324 -148 45 2 110 15 146 27 72 24
192 94 229 134 l24 26 63 -60 c72 -70 140 -104 238 -121 207 -35 430 43 584
205 107 113 210 279 267 431 l23 59 0 -129 c1 -238 52 -355 206 -474 74 -57
171 -90 290 -98 215 -14 420 54 599 198 49 39 89 69 91 67 1 -1 12 -24 25 -49
31 -64 124 -154 190 -187 51 -25 66 -27 166 -27 92 1 122 5 186 27 73 26 166
76 220 119 l27 21 63 -52 c35 -30 88 -64 116 -77 149 -68 405 -51 593 40 129
63 242 206 270 344 14 67 10 289 -10 528 -14 175 -28 407 -36 593 -7 139 -9
152 -26 152 -10 0 -18 6 -18 14 0 26 -19 28 -133 12 -61 -9 -148 -21 -192 -27
-44 -6 -107 -16 -139 -22 l-60 -12 -34 -100 c-154 -453 -281 -728 -384 -827
-65 -63 -108 -145 -108 -205 0 -28 -8 -43 -34 -68 -34 -32 -95 -54 -128 -47
-29 6 -23 44 57 412 20 91 45 208 55 260 11 52 31 147 44 210 14 63 34 158 45
210 60 282 84 396 107 500 14 63 28 134 31 158 5 38 4 42 -16 42 -14 0 -21 6
-21 20 0 24 -10 24 -175 -1z m-970 -926 c-9 -100 -48 -184 -123 -265 -57 -61
-129 -114 -140 -103 -20 20 101 291 166 368 34 41 78 77 96 77 4 0 5 -35 1
-77z m-2745 4 c0 -18 -11 -87 -26 -152 -14 -66 -29 -140 -34 -165 -38 -193
-85 -383 -104 -425 -35 -76 -91 -125 -172 -149 -79 -24 -92 161 -29 429 68
291 203 495 328 495 35 0 37 -2 37 -33z m4331 -518 c21 -254 2 -343 -83 -393
-55 -31 -98 -40 -155 -31 -56 8 -57 37 -1 46 49 8 83 32 114 81 35 55 37 139
5 194 l-22 37 58 124 c42 89 60 119 65 106 3 -10 12 -84 19 -164z"/>
<path d="M6005 3000 c-283 -41 -505 -239 -639 -570 -66 -161 -101 -348 -100
-525 2 -216 35 -306 155 -420 111 -104 225 -145 407 -145 105 0 170 14 258 56
90 42 178 133 224 231 32 68 88 288 76 300 -3 3 -15 -2 -26 -12 -20 -18 -20
-18 -20 18 l0 36 -84 -67 c-141 -113 -275 -167 -355 -144 -45 14 -58 40 -68
132 -7 66 -2 72 82 89 325 69 564 300 606 586 45 299 -176 485 -516 435z m158
-358 c-8 -93 -57 -194 -135 -278 -52 -55 -138 -117 -138 -99 0 3 13 42 29 88
53 155 138 301 199 342 19 13 39 22 43 19 5 -2 6 -35 2 -72z"/>
</g>
</svg>
